<svg version="1.0" xmlns="http://www.w3.org/2000/svg"
     width="50"
     height="50"
     class="rounded-xl text-oyster fill-aqua"
     viewBox="-100 -100 1000 1000">
  <g transform="translate(0.000000,834.000000) scale(0.100000,-0.100000)">
    <path fill="#6b87fa" d="M3906 7269 c-367 -48 -733 -207 -1011 -441 -49 -42 -323 -309 -608
-595 l-517 -518 392 -391 c369 -367 397 -393 453 -414 120 -45 257 -35 360 26
22 13 510 493 1084 1068 l1044 1044 -79 37 c-195 93 -398 153 -600 180 -125
16 -403 18 -518 4z"/>
    <path fill="#6b87fa" d="M4345 5200 c-1536 -1537 -1400 -1415 -1575 -1414 -167 0 -116 -41
-840 681 -350 348 -640 633 -646 633 -16 0 -97 -178 -139 -304 -81 -241 -116
-521 -96 -769 l11 -142 743 -741 c577 -577 753 -746 790 -763 71 -34 164 -47
239 -34 135 23 74 -33 1268 1158 608 606 1121 1111 1140 1122 111 65 250 70
363 15 77 -38 148 -111 185 -190 24 -50 27 -69 27 -157 0 -177 130 -31 -1399
-1563 l-1351 -1353 25 -19 c53 -42 327 -171 443 -209 617 -201 1254 -102 1792
277 56 40 281 257 763 737 376 374 710 712 742 751 224 271 370 605 425 969
19 130 19 426 0 564 -49 343 -189 669 -408 951 -58 74 -1126 1150 -1142 1150
-5 0 -618 -608 -1360 -1350z"/>
  </g>
</svg>
