<svg xmlns="http://www.w3.org/2000/svg" xmlns:xlink="http://www.w3.org/1999/xlink" viewBox="0 0 601.55 561.46"><defs><style>.cls-1{fill:url(#linear-gradient);}.cls-2{fill:#231f20;opacity:0.19;}</style><linearGradient id="linear-gradient" x1="290.61" y1="561.8" x2="304.47" y2="157.7" gradientUnits="userSpaceOnUse"><stop offset="0" stop-color="#455eb5"/><stop offset="1" stop-color="#6e48d8"/></linearGradient></defs><g id="Layer_2" data-name="Layer 2"><g id="Layer_1-2" data-name="Layer 1"><path class="cls-1" d="M440.08,385l13.09,13.92c81.59-5.17,148.5-71.82,148.38-154.18,0-1,0-2,0-3.05-.06-3.34-.25-6.75-.49-10.16s-.64-7-1.11-10.46A175.48,175.48,0,0,0,569.43,144c-30.75-43.77-80.67-73.31-136.76-76.08-3-.15-6-.2-9-.2a177.49,177.49,0,0,0-57.4,9.48,130.78,130.78,0,0,0-249.88,46.52C57.32,135.08,10.17,183.78,2.06,244.19c-.43,3.13-.77,6.2-.94,9.24a130.74,130.74,0,0,0,6.6,51.67A137.34,137.34,0,0,0,48,364.49a142.27,142.27,0,0,0,93.14,34.77h33.43v1.64l-23.94,23.94v44.54H128.29v62.15h62.15V469.38H168.82v-37l23.94-23.94V302.77h17.62v96.49h35v32.87H226.73v62.15h62.15V432.13H263.61V399.26h.22V220.15h18.25V399.26h32.64v45.42l6.16,5.51L340,467.29v32H312.06v62.15H374.2V499.31h-16V459.13L339.13,442,333,436.51V173.24h-.16v-.17h18.25V399.26h59.77l29.8,31.65v9.21H416.69v62.14h62.13V440.12H458.87V423.68l-18.79-20L422.47,385l-6.16-6.55V225.78h17.61V378.45ZM172.19,487.63v25.64H146.54V487.63ZM356,543.2H330.31V517.56H356Zm104.62-84.83V484H434.93V458.37Zm-189.94-8V476H245V450.39Z"/><path class="cls-2" d="M600,229a177.44,177.44,0,0,0-21-39.56c-30.75-43.77-80.67-73.31-136.76-76.08-3-.15-6-.2-9-.2a177.45,177.45,0,0,0-57.4,9.48A130.78,130.78,0,0,0,126,169.12C66.94,180.49,19.79,229.19,11.67,289.6c-.43,3.13-.76,6.2-.94,9.24a130.7,130.7,0,0,0-.17,16.06C9.24,311.82,8,308.67,7,305.48A130.9,130.9,0,0,1,.34,253.82c.18-3,.52-6.11.94-9.25,8.12-60.41,55.27-109.1,114.37-120.48A130.77,130.77,0,0,1,365.53,77.58a177.23,177.23,0,0,1,57.4-9.49c3,0,6,.06,9,.21,56.09,2.77,106,32.31,136.76,76.08a175.26,175.26,0,0,1,30.48,77.07C599.49,223.93,599.78,226.44,600,229Z"/></g></g></svg>