<svg xmlns="http://www.w3.org/2000/svg" enable-background="new 0 0 48 48" viewBox="0 0 48 48"><path fill="#f15743" d="M27,21.5c-0.553,0-1-0.447-1-1v-3c0-1.103-0.897-2-2-2s-2,0.897-2,2v3c0,0.553-0.447,1-1,1s-1-0.447-1-1v-3   c0-2.206,1.794-4,4-4s4,1.794,4,4v3C28,21.053,27.553,21.5,27,21.5z"/><path fill="#f15743" d="M28,21.5h-8c-0.553,0-1-0.447-1-1s0.447-1,1-1h8c0.553,0,1,0.447,1,1S28.553,21.5,28,21.5z"/><circle cx="24" cy="21.5" r="1.5" fill="#f15743"/><path fill="#f15743" d="M24,15c-0.553,0-1-0.447-1-1v-1.25c0-0.553,0.447-1,1-1s1,0.447,1,1V14C25,14.553,24.553,15,24,15z"/><circle cx="24" cy="29" r="1" fill="#f15743"/><path fill="#2c4355" d="M40,7H8c-1.654,0-3,1.346-3,3v20c0,1.654,1.346,3,3,3h12v6h-5.5c-0.553,0-1,0.447-1,1s0.447,1,1,1H21h6h6.5   c0.553,0,1-0.447,1-1s-0.447-1-1-1H28v-6h12c1.654,0,3-1.346,3-3V10C43,8.346,41.654,7,40,7z M7,10c0-0.552,0.448-1,1-1h32   c0.552,0,1,0.448,1,1v15H7V10z M26,39h-4v-6h4V39z M41,30c0,0.552-0.448,1-1,1H27h-6H8c-0.552,0-1-0.448-1-1v-3h34V30z"/></svg>
