<svg xmlns="http://www.w3.org/2000/svg" width="110" height="110" version="1.0" viewBox="0 0 110 110"><path fill="#3E3E3F" d="M63.973 27.688C61.789 25.998 58.841 25 55 25s-6.789.998-8.973 2.688L40 23l1 17c0 8.284 6.268 15 14 15s14-6.716 14-15l1-17-6.027 4.688z"/><path fill="#5B5C5F" d="M46.027 27.688L40 23l1 17c0 8.284 6.268 15 14 15V25c-3.841 0-6.789.998-8.973 2.688z"/><path fill="#3E3E3F" d="M55 49c-4 0-28 2-28 34 0 0 10 4 28 4s28-4 28-4c0-32-24-34-28-34z"/><path fill="#CFD3D4" d="M55 87c6.848 0 12.534-.579 16.956-1.297C71.055 59.729 55 55 55 55s-16.055 4.729-16.956 30.703C42.466 86.421 48.152 87 55 87z"/><path fill="#3E3E3F" d="M63 68l-4 3v-4l-4 3-4-3v4l-3.997-3c-3.012 2.559-5.095 5.652-5 10 6-.667 9.997 0 12.997 5 3-5 7-5.667 13-5 .095-4.348-1.988-7.441-5-10z"/><path fill="#FBC8C8" d="M55 55c3.694 0 7.045-1.545 9.546-4.05C69.105 37.41 58.678 45 55 45s-14.105-7.59-9.546 5.95C47.955 53.455 51.306 55 55 55z"/><path fill="#CFD3D4" d="M62.523 39.692c-2.49 1.341-5.723.173-5.723.173s.805-3.341 3.295-4.682c2.49-1.341 5.723-.173 5.723-.173s-.805 3.341-3.295 4.682zM47.477 39.692c2.49 1.341 5.723.173 5.723.173s-.805-3.341-3.295-4.682c-2.49-1.341-5.723-.173-5.723-.173s.805 3.341 3.295 4.682z"/><path fill="#FBD7D7" d="M45.454 50.95C47.956 53.455 51.306 55 55 55V45c-3.678 0-14.105-7.59-9.546 5.95z"/><path fill="#F79392" d="M50 48h10s0 3-5 3-5-3-5-3z"/><path fill="#5B5C5F" d="M51 67v4l-3.997-3c-3.011 2.559-5.095 5.652-5 10 6-.667 9.997 0 12.997 5V70l-4-3z"/></svg>
