<svg xmlns="http://www.w3.org/2000/svg" width="24" height="24" data-name="Check Circle" viewBox="0 0 24 24"><path fill="none" d="M0,0H24V24H0Z" data-name="Path 3676"/><path fill="#525863" d="M11411.8,13216.772a9.593,9.593,0,1,1,6.785,2.813A9.592,9.592,0,0,1,11411.8,13216.772Zm1.27-12.3a7.808,7.808,0,1,0,5.517-2.28A7.807,7.807,0,0,0,11413.068,13204.469Zm3.447,9.017-2.866-2.863a1.351,1.351,0,0,1,1.91-1.91l1.906,1.91,4.144-4.144a1.35,1.35,0,0,1,1.907,1.911l-5.087,5.091,0,0h0a1.346,1.346,0,0,1-1.906,0Z" data-name="Check Circle" transform="translate(-11406.583 -13197.982)"/></svg>
