<?xml version="1.0" encoding="UTF-8" standalone="no"?> <svg width="64" height="64" viewBox="0 0 64 64" fill="none" xmlns="http://www.w3.org/2000/svg">
<path d="M27 5C24.6131 5 22.3239 5.94821 20.636 7.63604C18.9482 9.32387 18 11.6131 18 14H20C20 12.1435 20.7375 10.363 22.0503 9.05025C23.363 7.7375 25.1435 7 27 7V5Z" fill="black"/>
<path d="M33 26H31V28H33V26Z" fill="black"/>
<path d="M33 30H31V32H33V30Z" fill="black"/>
<path d="M1.42007 54.84C1.26493 54.9511 1.14482 55.1043 1.07395 55.2815C1.00307 55.4587 0.984374 55.6525 1.02007 55.84C1.25705 56.967 1.70491 58.0392 2.34007 59C2.44742 59.1606 2.59898 59.2866 2.77644 59.3629C2.9539 59.4392 3.14967 59.4625 3.34007 59.43C3.5023 59.4053 3.66803 59.4187 3.8242 59.469C3.98038 59.5194 4.12274 59.6053 4.24007 59.72C4.3589 59.8344 4.44757 59.9765 4.49817 60.1335C4.54877 60.2905 4.55973 60.4577 4.53007 60.6199C4.4975 60.8104 4.52078 61.0061 4.59709 61.1836C4.6734 61.361 4.79947 61.5126 4.96007 61.6199C5.92234 62.2786 7.00175 62.747 8.14007 63C8.32755 63.0357 8.52133 63.017 8.69852 62.9461C8.87572 62.8752 9.02893 62.7551 9.14007 62.5999C9.23908 62.4713 9.36631 62.3671 9.51195 62.2954C9.65759 62.2238 9.81775 62.1865 9.98007 62.1865C10.1424 62.1865 10.3026 62.2238 10.4482 62.2954C10.5938 62.3671 10.7211 62.4713 10.8201 62.5999C10.9121 62.7292 11.0335 62.8347 11.1744 62.9077C11.3152 62.9807 11.4714 63.0192 11.6301 63.02H11.8401C12.97 62.7707 14.0423 62.3092 15.0001 61.66C15.1607 61.5526 15.2868 61.401 15.3631 61.2236C15.4394 61.0461 15.4626 60.8504 15.4301 60.66C15.4004 60.4977 15.4114 60.3305 15.462 60.1735C15.5126 60.0165 15.6012 59.8744 15.7201 59.7599C15.8374 59.6453 15.9798 59.5594 16.1359 59.509C16.2921 59.4587 16.4578 59.4453 16.6201 59.47C16.8105 59.5025 17.0062 59.4792 17.1837 59.4029C17.3612 59.3266 17.5127 59.2006 17.6201 59.04C18.2787 58.0777 18.7471 56.9983 19.0001 55.86C19.0358 55.6725 19.0171 55.4787 18.9462 55.3015C18.8753 55.1243 18.7552 54.9711 18.6001 54.86C18.4597 54.7693 18.3443 54.6449 18.2644 54.4982C18.1845 54.3514 18.1427 54.187 18.1427 54.02C18.1427 53.8529 18.1845 53.6885 18.2644 53.5417C18.3443 53.395 18.4597 53.2706 18.6001 53.18C18.6637 53.1345 18.7209 53.0807 18.7701 53.02H22.1601C22.3841 53.8694 22.8815 54.6215 23.5755 55.1601C24.2696 55.6987 25.1216 55.9938 26.0001 56H38.0001C38.8846 55.9971 39.7433 55.7011 40.4417 55.1583C41.1401 54.6154 41.6389 53.8564 41.8601 53H45.2501C45.2993 53.0607 45.3565 53.1145 45.4201 53.16C45.5604 53.2506 45.6758 53.375 45.7557 53.5217C45.8356 53.6685 45.8775 53.8329 45.8775 54C45.8775 54.167 45.8356 54.3314 45.7557 54.4782C45.6758 54.6249 45.5604 54.7493 45.4201 54.84C45.2649 54.9511 45.1448 55.1043 45.0739 55.2815C45.0031 55.4587 44.9844 55.6525 45.0201 55.84C45.257 56.967 45.7049 58.0392 46.3401 59C46.4474 59.1606 46.599 59.2866 46.7764 59.3629C46.9539 59.4392 47.1497 59.4625 47.3401 59.43C47.5023 59.4053 47.668 59.4187 47.8242 59.469C47.9804 59.5194 48.1227 59.6053 48.2401 59.72C48.3589 59.8344 48.4476 59.9765 48.4982 60.1335C48.5488 60.2905 48.5597 60.4577 48.5301 60.6199C48.4975 60.8104 48.5208 61.0061 48.5971 61.1836C48.6734 61.361 48.7995 61.5126 48.9601 61.6199C49.9223 62.2786 51.0017 62.747 52.1401 63C52.3275 63.0357 52.5213 63.017 52.6985 62.9461C52.8757 62.8752 53.0289 62.7551 53.1401 62.5999C53.2391 62.4713 53.3663 62.3671 53.5119 62.2954C53.6576 62.2238 53.8177 62.1865 53.9801 62.1865C54.1424 62.1865 54.3026 62.2238 54.4482 62.2954C54.5938 62.3671 54.7211 62.4713 54.8201 62.5999C54.9121 62.7292 55.0335 62.8347 55.1744 62.9077C55.3152 62.9807 55.4714 63.0192 55.6301 63.02H55.8401C56.97 62.7707 58.0423 62.3092 59.0001 61.66C59.1607 61.5526 59.2868 61.401 59.3631 61.2236C59.4394 61.0461 59.4626 60.8504 59.4301 60.66C59.4004 60.4977 59.4114 60.3305 59.462 60.1735C59.5126 60.0165 59.6012 59.8744 59.7201 59.7599C59.8374 59.6453 59.9798 59.5594 60.1359 59.509C60.2921 59.4587 60.4578 59.4453 60.6201 59.47C60.8105 59.5025 61.0062 59.4792 61.1837 59.4029C61.3612 59.3266 61.5127 59.2006 61.6201 59.04C62.2787 58.0777 62.7471 56.9983 63.0001 55.86C63.0358 55.6725 63.0171 55.4787 62.9462 55.3015C62.8753 55.1243 62.7552 54.9711 62.6001 54.86C62.4597 54.7693 62.3443 54.6449 62.2644 54.4982C62.1845 54.3514 62.1427 54.187 62.1427 54.02C62.1427 53.8529 62.1845 53.6885 62.2644 53.5417C62.3443 53.395 62.4597 53.2706 62.6001 53.18C62.7552 53.0688 62.8753 52.9156 62.9462 52.7384C63.0171 52.5612 63.0358 52.3674 63.0001 52.18C62.7594 51.0445 62.3046 49.9653 61.6601 49C61.5527 48.8393 61.4012 48.7133 61.2237 48.637C61.0462 48.5607 60.8505 48.5374 60.6601 48.57C60.4964 48.6056 60.3263 48.5996 60.1656 48.5524C60.0048 48.5053 59.8585 48.4185 59.74 48.3C59.6216 48.1815 59.5348 48.0352 59.4876 47.8744C59.4404 47.7137 59.4344 47.5436 59.4701 47.38C59.5026 47.1895 59.4794 46.9938 59.4031 46.8163C59.3267 46.6389 59.2007 46.4873 59.0401 46.38C58.0778 45.7213 56.9984 45.2529 55.8601 45C55.6726 44.9643 55.4788 44.9829 55.3016 45.0538C55.1244 45.1247 54.9712 45.2448 54.8601 45.4C54.7611 45.5286 54.6338 45.6328 54.4882 45.7045C54.3426 45.7761 54.1824 45.8134 54.0201 45.8134C53.8577 45.8134 53.6976 45.7761 53.5519 45.7045C53.4063 45.6328 53.2791 45.5286 53.1801 45.4C53.0689 45.2448 52.9157 45.1247 52.7385 45.0538C52.5613 44.9829 52.3676 44.9643 52.1801 45C51.0446 45.2406 49.9654 45.6954 49.0001 46.34C48.8395 46.4473 48.7134 46.5989 48.6371 46.7763C48.5608 46.9538 48.5375 47.1495 48.5701 47.34C48.6057 47.5036 48.5997 47.6737 48.5526 47.8344C48.5054 47.9952 48.4186 48.1415 48.3001 48.26C48.1816 48.3785 48.0353 48.4653 47.8746 48.5124C47.7138 48.5596 47.5438 48.5656 47.3801 48.5299C47.1897 48.4974 46.9939 48.5207 46.8164 48.597C46.639 48.6733 46.4874 48.7993 46.3801 48.9599C45.9644 49.5821 45.6284 50.2541 45.3801 50.9599H41.8601C41.6315 50.1109 41.1295 49.3608 40.4317 48.8258C39.734 48.2907 38.8794 48.0005 38.0001 48H33.0001V40.4599C33.1399 40.5349 33.2707 40.6254 33.3901 40.7299C33.5745 40.9026 33.8174 40.9991 34.0701 41H34.2501C35.9106 40.696 37.4883 40.0452 38.8801 39.09C39.0085 39.001 39.1142 38.8832 39.1889 38.746C39.2636 38.6088 39.3051 38.4561 39.3101 38.2999C39.3228 37.7735 39.5376 37.2721 39.9099 36.8998C40.2823 36.5274 40.7836 36.3126 41.3101 36.2999C41.4662 36.295 41.619 36.2535 41.7561 36.1788C41.8933 36.1041 42.0111 35.9983 42.1001 35.8699C42.3001 35.5799 42.4701 35.29 42.6401 34.99H47.0001C49.6804 34.9793 52.2646 33.9903 54.2672 32.2089C56.2699 30.4275 57.5532 27.9761 57.8761 25.3153C58.1991 22.6545 57.5394 19.9674 56.021 17.7586C54.5026 15.5498 52.23 13.9715 49.6301 13.32C49.0447 11.2155 47.7863 9.36065 46.0473 8.03881C44.3084 6.71697 42.1844 6.00087 40.0001 5.99995C39.1526 5.99937 38.3086 6.11032 37.4901 6.32995C35.9027 4.15369 33.6786 2.52424 31.125 1.66685C28.5714 0.809461 25.8146 0.766464 23.2355 1.5438C20.6565 2.32114 18.3826 3.88043 16.7281 6.00614C15.0737 8.13184 14.1204 10.719 14.0001 13.41C11.4398 14.1292 9.22677 15.7517 7.77064 17.977C6.3145 20.2023 5.71385 22.8798 6.07987 25.5139C6.44588 28.148 7.75378 30.5603 9.76147 32.3043C11.7692 34.0483 14.3407 35.006 17.0001 35H21.3901C21.5601 35.3 21.7301 35.59 21.9301 35.88C22.019 36.0083 22.1368 36.1141 22.274 36.1888C22.4112 36.2635 22.564 36.305 22.7201 36.31C23.2465 36.3226 23.7479 36.5374 24.1202 36.9098C24.4926 37.2821 24.7074 37.7835 24.7201 38.31C24.7251 38.4661 24.7666 38.6188 24.8412 38.756C24.9159 38.8932 25.0217 39.011 25.1501 39.0999C26.5338 40.0478 28.1008 40.695 29.7501 41C29.903 41.028 30.0603 41.02 30.2096 40.9766C30.3589 40.9332 30.496 40.8556 30.6101 40.75C30.7294 40.6454 30.8602 40.5549 31.0001 40.4799V48H26.0001C25.1155 48.0028 24.2569 48.2988 23.5584 48.8416C22.86 49.3845 22.3612 50.1435 22.1401 51H18.6501C18.4018 50.2941 18.0658 49.6221 17.6501 49C17.5427 48.8393 17.3912 48.7133 17.2137 48.637C17.0362 48.5607 16.8405 48.5374 16.6501 48.57C16.4864 48.6056 16.3163 48.5996 16.1556 48.5524C15.9948 48.5053 15.8485 48.4185 15.73 48.3C15.6116 48.1815 15.5248 48.0352 15.4776 47.8744C15.4304 47.7137 15.4244 47.5436 15.4601 47.38C15.4926 47.1895 15.4694 46.9938 15.3931 46.8163C15.3168 46.6389 15.1907 46.4873 15.0301 46.38C14.0708 45.7225 12.9949 45.2541 11.8601 45C11.6726 44.9643 11.4788 44.9829 11.3016 45.0538C11.1244 45.1247 10.9712 45.2448 10.8601 45.4C10.7611 45.5286 10.6338 45.6328 10.4882 45.7045C10.3426 45.7761 10.1824 45.8134 10.0201 45.8134C9.85775 45.8134 9.69759 45.7761 9.55195 45.7045C9.40631 45.6328 9.27908 45.5286 9.18007 45.4C9.06893 45.2448 8.91572 45.1247 8.73852 45.0538C8.56133 44.9829 8.36755 44.9643 8.18007 45C7.04461 45.2406 5.96537 45.6954 5.00007 46.34C4.83947 46.4473 4.7134 46.5989 4.63709 46.7763C4.56078 46.9538 4.5375 47.1495 4.57007 47.34C4.60575 47.5036 4.59972 47.6737 4.55255 47.8344C4.50538 47.9952 4.41858 48.1415 4.30011 48.26C4.18165 48.3785 4.03532 48.4653 3.87456 48.5124C3.7138 48.5596 3.54377 48.5656 3.38007 48.5299C3.18967 48.4974 2.9939 48.5207 2.81644 48.597C2.63898 48.6733 2.48742 48.7993 2.38007 48.9599C1.72143 49.9222 1.25301 51.0016 1.00007 52.1399C0.964374 52.3274 0.983067 52.5212 1.05395 52.6984C1.12482 52.8756 1.24493 53.0288 1.40007 53.1399C1.54042 53.2306 1.65582 53.355 1.73572 53.5017C1.81562 53.6485 1.85749 53.8129 1.85749 53.9799C1.85749 54.147 1.81562 54.3114 1.73572 54.4582C1.65582 54.6049 1.54042 54.7293 1.40007 54.82L1.42007 54.84ZM54.0001 51C54.5934 51 55.1734 51.1759 55.6668 51.5055C56.1601 51.8352 56.5446 52.3037 56.7717 52.8519C56.9988 53.4001 57.0582 54.0033 56.9424 54.5852C56.8267 55.1672 56.5409 55.7017 56.1214 56.1213C55.7018 56.5408 55.1673 56.8266 54.5853 56.9423C54.0034 57.0581 53.4002 56.9987 52.852 56.7716C52.3038 56.5445 51.8353 56.16 51.5057 55.6667C51.176 55.1733 51.0001 54.5933 51.0001 54C51.0001 53.2043 51.3161 52.4412 51.8788 51.8786C52.4414 51.316 53.2044 51 54.0001 51ZM35.0001 51H37.0001V53H35.0001V51ZM24.0901 21.09C23.7282 21.4596 23.2372 21.6747 22.7201 21.69C22.564 21.6949 22.4112 21.7364 22.274 21.8111C22.1368 21.8858 22.019 21.9916 21.9301 22.12C20.9678 23.5101 20.3101 25.0879 20.0001 26.75C19.972 26.9029 19.98 27.0602 20.0234 27.2095C20.0668 27.3588 20.1444 27.4959 20.2501 27.61C20.6106 27.9829 20.8121 28.4813 20.8121 29C20.8121 29.5186 20.6106 30.017 20.2501 30.3899C20.1444 30.504 20.0668 30.6411 20.0234 30.7904C19.98 30.9397 19.972 31.097 20.0001 31.25C20.1207 31.8455 20.2878 32.4306 20.5001 33H17.0001C14.769 32.9997 12.6176 32.1708 10.9631 30.674C9.30866 29.1773 8.2691 27.1193 8.04612 24.8995C7.82313 22.6796 8.43261 20.456 9.75634 18.6601C11.0801 16.8642 13.0236 15.6239 15.2101 15.18C15.4393 15.1332 15.645 15.0075 15.7911 14.8248C15.9373 14.6421 16.0148 14.4139 16.0101 14.18C16.0146 14.1134 16.0146 14.0465 16.0101 13.98C16.0109 11.6074 16.7789 9.29863 18.1993 7.39824C19.6198 5.49784 21.6166 4.10765 23.8918 3.43508C26.1671 2.76251 28.5989 2.84361 30.8243 3.66629C33.0496 4.48897 34.9494 6.00913 36.2401 7.99995C36.362 8.18815 36.5437 8.32991 36.7558 8.40246C36.968 8.475 37.1984 8.47412 37.4101 8.39995C38.2452 8.12371 39.1205 7.98853 40.0001 7.99995C41.8384 8.00045 43.6205 8.63406 45.0465 9.79419C46.4725 10.9543 47.4555 12.5702 47.8301 14.37C47.8707 14.5648 47.9685 14.7431 48.111 14.8821C48.2535 15.0211 48.4342 15.1143 48.6301 15.15C50.8368 15.558 52.8116 16.7757 54.167 18.5644C55.5223 20.353 56.1606 22.5835 55.9565 24.8184C55.7524 27.0533 54.7207 29.1313 53.0638 30.6449C51.4069 32.1584 49.2442 32.9984 47.0001 33H43.5001C43.7123 32.4306 43.8795 31.8455 44.0001 31.25C44.0281 31.097 44.0201 30.9397 43.9767 30.7904C43.9333 30.6411 43.8557 30.504 43.7501 30.3899C43.3896 30.017 43.1881 29.5186 43.1881 29C43.1881 28.4813 43.3896 27.9829 43.7501 27.61C43.8557 27.4959 43.9333 27.3588 43.9767 27.2095C44.0201 27.0602 44.0281 26.9029 44.0001 26.75C43.6962 25.0895 43.0453 23.5118 42.0901 22.12C42.0011 21.9916 41.8833 21.8858 41.7461 21.8111C41.609 21.7364 41.4562 21.6949 41.3001 21.69C40.7736 21.6773 40.2723 21.4625 39.8999 21.0901C39.5276 20.7178 39.3128 20.2164 39.3001 19.69C39.2951 19.5338 39.2536 19.3811 39.1789 19.2439C39.1042 19.1067 38.9985 18.9889 38.8701 18.9C37.4804 17.9495 35.9063 17.3022 34.2501 17C34.0972 16.9719 33.9398 16.9799 33.7905 17.0233C33.6412 17.0667 33.5041 17.1443 33.3901 17.25C33.0083 17.5929 32.5133 17.7826 32.0001 17.7826C31.4869 17.7826 30.9918 17.5929 30.6101 17.25C30.496 17.1443 30.3589 17.0667 30.2096 17.0233C30.0603 16.9799 29.903 16.9719 29.7501 17C28.0896 17.3039 26.5119 17.9547 25.1201 18.91C24.9917 18.9989 24.8859 19.1167 24.8112 19.2539C24.7366 19.3911 24.6951 19.5438 24.6901 19.7C24.6799 20.224 24.4645 20.7231 24.0901 21.09ZM25.0001 29C25.0001 27.6155 25.4106 26.2621 26.1798 25.111C26.949 23.9598 28.0422 23.0626 29.3213 22.5328C30.6004 22.003 32.0078 21.8644 33.3657 22.1345C34.7236 22.4045 35.9709 23.0712 36.9498 24.0502C37.9288 25.0292 38.5955 26.2765 38.8656 27.6343C39.1357 28.9922 38.997 30.3997 38.4672 31.6787C37.9374 32.9578 37.0402 34.0511 35.8891 34.8202C34.7379 35.5894 33.3845 36 32.0001 36C30.1436 36 28.3631 35.2625 27.0503 33.9497C25.7376 32.6369 25.0001 30.8565 25.0001 29ZM31.0001 51H33.0001V53H31.0001V51ZM27.0001 51H29.0001V53H27.0001V51ZM10.0001 51C10.5934 51 11.1734 51.1759 11.6668 51.5055C12.1601 51.8352 12.5446 52.3037 12.7717 52.8519C12.9988 53.4001 13.0582 54.0033 12.9424 54.5852C12.8267 55.1672 12.541 55.7017 12.1214 56.1213C11.7018 56.5408 11.1673 56.8266 10.5853 56.9423C10.0034 57.0581 9.4002 56.9987 8.85202 56.7716C8.30385 56.5445 7.83531 56.16 7.50567 55.6667C7.17602 55.1733 7.00007 54.5933 7.00007 54C7.00007 53.2043 7.31614 52.4412 7.87875 51.8786C8.44136 51.316 9.20442 51 10.0001 51V51Z" fill="black"/>
</svg>
