<svg xmlns="http://www.w3.org/2000/svg" width="56" height="56" viewBox="0 0 56 56"><g transform="translate(0 -996.362)"><circle cx="28" cy="1024.362" r="28" fill="#ef4c45" fill-rule="evenodd"/><path fill="#df2209" d="M 27.587891,55.978516 C 27.725206,55.98669 27.862579,55.993851 28,56 c 0.660779,-6.1e-5 1.321349,-0.02351 1.980469,-0.07031 0.931487,-0.06621 1.859079,-0.178984 2.779297,-0.337891 0.919775,-0.158144 1.831069,-0.362175 2.730468,-0.611328 0.899581,-0.249802 1.786105,-0.544442 2.65625,-0.882813 0.870113,-0.338677 1.722741,-0.720664 2.554688,-1.144531 0.831953,-0.423433 1.642209,-0.888206 2.427734,-1.392578 0.785096,-0.50407 1.544507,-1.047065 2.275391,-1.626953 0.731544,-0.580423 1.433593,-1.197079 2.103515,-1.847656 0.669787,-0.650061 1.30665,-1.333206 1.908204,-2.046876 0.60125,-0.714145 1.166409,-1.457912 1.693359,-2.228515 0.52712,-0.770684 1.01536,-1.567252 1.462891,-2.386719 0.447333,-0.819041 0.853439,-1.659934 1.216796,-2.519531 0.36394,-0.859734 0.684653,-1.737132 0.960938,-2.628906 0.275561,-0.892202 0.506318,-1.797631 0.691406,-2.712891 0.185374,-0.914981 0.324871,-1.838661 0.417969,-2.767578 C 55.952806,29.866208 55.99974,28.933402 56,28 c -0.0036,-0.134797 -0.0081,-0.269566 -0.01367,-0.404297 l -12.279297,-12.279297 -0.0293,-0.0293 c -0.06521,-0.0652 -0.145102,-0.109626 -0.224609,-0.154297 -0.02501,-0.01408 -0.04412,-0.03703 -0.07031,-0.04883 C 43.264784,15.030935 43.135891,15 43,15 l -30,0 c -0.553,0 -1,0.485984 -1,1.083984 l 0,23.832032 c 0,0.153329 0.03113,0.29752 0.08398,0.429687 0.01961,0.0492 0.05424,0.08577 0.08008,0.130859 0.04475,0.07813 0.08739,0.157511 0.148438,0.220704 0.0042,0.0044 0.0055,0.01134 0.0098,0.01563 z m 3.014508,-15.313058 7.64202,-0.491072 4.710938,0.112723 L 43,39.125 C 43.018541,38.642356 42.5805,40 42.0625,40 l -4.714844,0 z M 27.732701,40.203125 29.996094,40 29.261719,40 Z" transform="translate(0 996.362)"/><path fill="#fff" d="M 1,3 C 0.447,3 0,3.4859844 0,4.0839844 L 0,27.916016 C 0,28.515016 0.447,29 1,29 l 30,0 c 0.553,0 1,-0.484984 1,-1.083984 L 32,4.0839844 C 32,3.4849844 31.553,3 31,3 L 1,3 Z m 22,1 c 0.553,0 1,0.447 1,1 0,0.553 -0.447,1 -1,1 -0.553,0 -1,-0.447 -1,-1 0,-0.553 0.447,-1 1,-1 z m 3,0 c 0.553,0 1,0.447 1,1 0,0.553 -0.447,1 -1,1 -0.553,0 -1,-0.447 -1,-1 0,-0.553 0.447,-1 1,-1 z m 3,0 c 0.553,0 1,0.447 1,1 0,0.553 -0.447,1 -1,1 C 28.447,6 28,5.553 28,5 28,4.447 28.447,4 29,4 Z M 1.9375,7 30.0625,7 C 30.5805,7 31,7.392 31,7.875 l 0,19.25 C 31,27.608 30.5805,28 30.0625,28 L 1.9375,28 C 1.4195,28 0.99804687,27.608 0.99804688,27.125 l 0,-19.25 C 0.99904687,7.392 1.4205,7 1.9375,7 Z m 9.003906,7.001953 c -0.543,0 -0.9843748,0.439422 -0.9843748,0.982422 0,0.543 0.4413748,0.982422 0.9843748,0.982422 0.543,0 0.982422,-0.439422 0.982422,-0.982422 0,-0.543 -0.439422,-0.982422 -0.982422,-0.982422 z m 10.021485,0 c -0.543,0 -0.984375,0.439422 -0.984375,0.982422 0,0.543 0.441375,0.982422 0.984375,0.982422 0.543,0 0.982421,-0.439422 0.982421,-0.982422 0,-0.543 -0.439421,-0.982422 -0.982421,-0.982422 z m -4.958985,5.994141 c -1.657,0 -3.001906,1.341047 -3.003906,2.998047 l 0,0.0098 L 19,23 c 0.002,-1.656 -1.339094,-3.002906 -2.996094,-3.003906 z" transform="translate(12 1008.362)"/><path d="M 42.632812 35.263672 L 43 35.263672 L 43 35.630859 L 42.632812 35.263672 z " transform="translate(0 996.362)"/></g></svg>
