<svg xmlns="http://www.w3.org/2000/svg" enable-background="new 0 0 24 24" viewBox="0 0 24 24"><path d="M14.1,10.9c-0.4-0.4-1-0.4-1.4,0L12,11.6l-0.7-0.7c-0.4-0.4-1-0.4-1.4,0s-0.4,1,0,1.4l0.7,0.7l-0.7,0.7
			c-0.4,0.4-0.4,1,0,1.4c0.2,0.2,0.5,0.3,0.7,0.3s0.5-0.1,0.7-0.3l0.7-0.7l0.7,0.7c0.2,0.2,0.5,0.3,0.7,0.3s0.5-0.1,0.7-0.3
			c0.4-0.4,0.4-1,0-1.4L13.4,13l0.7-0.7C14.5,11.9,14.5,11.3,14.1,10.9z"/><path d="M19.6,10.6c-0.3-0.7-0.7-1.4-1.3-1.9c-1-1-2.4-1.6-3.9-1.6c-0.2,0-0.5,0-0.7,0c-0.1-0.2-0.3-0.3-0.4-0.4
			C12.4,5.6,11,5,9.5,5S6.6,5.6,5.6,6.6C4.6,7.6,4,9,4,10.5c0,0.1,0,0.2,0,0.3c-0.2,0.2-0.5,0.3-0.7,0.6c-0.9,0.8-1.3,2-1.3,3.2
			C2,17,4,19,6.5,19h11c1.2,0,2.3-0.5,3.2-1.3c0.9-0.8,1.3-2,1.3-3.2C22,12.8,21.1,11.3,19.6,10.6z M19.3,16.3
			c-0.5,0.5-1.1,0.7-1.8,0.7h-11C5.1,17,4,15.9,4,14.5c0-0.7,0.3-1.3,0.7-1.8c0.2-0.2,0.5-0.4,0.7-0.5c0.4-0.2,0.7-0.6,0.6-1.1
			C6,10.9,6,10.7,6,10.5C6,9.6,6.4,8.7,7,8c0.7-0.7,1.5-1,2.5-1s1.8,0.4,2.5,1c0.2,0.2,0.4,0.4,0.5,0.7c0.2,0.4,0.7,0.5,1.1,0.4
			C13.9,9,14.2,9,14.5,9c0.9,0,1.8,0.4,2.5,1c0.4,0.4,0.7,0.9,0.9,1.5c0.1,0.3,0.3,0.5,0.6,0.7c0.9,0.4,1.5,1.3,1.5,2.3
			C20,15.2,19.7,15.8,19.3,16.3z"/></svg>
