<svg xmlns="http://www.w3.org/2000/svg" width="183.99" height="184.013" viewBox="0 0 183.99 184.013"><path fill="#286ff9" d="M181.567,150.724l-69-138.01a23,23,0,0,0-41.138,0l-69,138.01A23,23,0,0,0,23,184.013H160.992a23,23,0,0,0,20.575-33.289Zm-78.079,4.537a5.745,5.745,0,0,1-5.75,5.75h-11.5a5.745,5.745,0,0,1-5.75-5.75v-11.5a5.745,5.745,0,0,1,5.75-5.75h11.5a5.745,5.745,0,0,1,5.75,5.75Zm0-46a5.745,5.745,0,0,1-5.75,5.75h-11.5a5.745,5.745,0,0,1-5.75-5.75v-57.5A5.749,5.749,0,0,1,86.237,46h11.5a5.749,5.749,0,0,1,5.75,5.75Z" transform="translate(-.002)"/></svg>
