<svg xmlns="http://www.w3.org/2000/svg" width="48" height="48" data-name="Layer 1" viewBox="0 0 48 48"><path d="M21.87 21.14a.79.79 0 0 0 .77-.74l.25-4.56L22 16a8.75 8.75 0 0 0-4.24 2.33l3.79 2.71A.64.64 0 0 0 21.87 21.14zM20.13 27l-4.53.77a9 9 0 0 0 3.56 4.47l1.74-4.19a.78.78 0 0 0 0-.46A.77.77 0 0 0 20.13 27zM24.29 28.94a.76.76 0 0 0-.91.2l-2.25 4.08a9.8 9.8 0 0 0 2.88.45 9.41 9.41 0 0 0 2-.22l.83-.23-2.2-4A1.16 1.16 0 0 0 24.29 28.94zM25.52 20.82a.74.74 0 0 0 1 .17l3.74-2.65a8.73 8.73 0 0 0-5.13-2.48l.25 4.65A.6.6 0 0 0 25.52 20.82z"/><polygon points="22.75 25.72 24.01 26.32 25.26 25.72 25.55 24.39 24.69 23.3 23.29 23.3 22.44 24.39 22.75 25.72"/><path d="M19.85,24.13a.78.78,0,0,0-.09-1.06l-3.39-3a9.16,9.16,0,0,0-1.28,5.59l4.41-1.28A.6.6,0,0,0,19.85,24.13Z"/><path d="M41.08,12.87A2.8,2.8,0,0,0,39.59,11L25.17,4.15A2.75,2.75,0,0,0,24,3.9a3.49,3.49,0,0,0-1.2.22L8.39,11a2.73,2.73,0,0,0-1.48,1.85L3.35,28.35a2.82,2.82,0,0,0,.54,2.33l10,12.4a2.72,2.72,0,0,0,2.14,1H32a2.72,2.72,0,0,0,2.13-1l10-12.4a2.65,2.65,0,0,0,.54-2.33ZM38.37,28.72a.61.61,0,0,1-.23,0,.1.1,0,0,0-.08,0c-.06,0-.12,0-.18,0a2.58,2.58,0,0,1-.51-.2l-.26-.11h0a7.31,7.31,0,0,0-1.49-.43h-.05a.78.78,0,0,0-.37.14s0,0-.06,0L34.78,28a11.34,11.34,0,0,1-1.2,2.57,11,11,0,0,1-3.76,3.67l.14.35s0,0,0,0a.87.87,0,0,0,0,.46,6.07,6.07,0,0,0,.74,1.34v0c.05.08.11.14.17.23a3,3,0,0,1,.31.45.85.85,0,0,1,.09.14s0,0,0,.06a1,1,0,0,1,.06.71.89.89,0,0,1-.43.52.81.81,0,0,1-.34.08,1,1,0,0,1-.85-.54.1.1,0,0,1,0-.06c0-.05-.06-.08-.09-.14a5.08,5.08,0,0,1-.17-.51l-.08-.26v0a9.63,9.63,0,0,0-.6-1.42.56.56,0,0,0-.37-.26s0,0-.06,0l-.17-.31a14.05,14.05,0,0,1-1.48.43,10.31,10.31,0,0,1-2.48.28,11,11,0,0,1-4-.74l-.2.37s0,0-.06,0a.81.81,0,0,0-.37.26,7,7,0,0,0-.6,1.42l-.08.26c-.06.17-.09.31-.17.51a.85.85,0,0,0-.09.14.1.1,0,0,0,0,.06,1,1,0,0,1-.85.54.81.81,0,0,1-.34-.08A.9.9,0,0,1,17,37.35a.13.13,0,0,0,0-.06.85.85,0,0,1,.09-.14c.11-.17.2-.31.31-.45s.12-.15.17-.23v0a8.45,8.45,0,0,0,.75-1.34.62.62,0,0,0-.06-.46s0,0,0,0l.17-.37a11.13,11.13,0,0,1-5-6.19l-.4.06s0,0-.05,0a.63.63,0,0,0-.37-.14h-.06a7.06,7.06,0,0,0-1.48.43h0c-.09,0-.17.08-.26.11a2.58,2.58,0,0,1-.51.2c-.06,0-.11,0-.17,0s0,0-.06,0a.86.86,0,0,1-.23,0,.88.88,0,0,1-.91-.65A1,1,0,0,1,9.67,27a.15.15,0,0,1,.09,0c.06,0,.11,0,.17,0a3.71,3.71,0,0,1,.54-.06,1,1,0,0,1,.29,0h0a6.87,6.87,0,0,0,1.54-.25.7.7,0,0,0,.32-.32s0,0,0-.05l.38-.12a11.06,11.06,0,0,1,1.59-7.52,1.42,1.42,0,0,1,.14-.23l-.28-.26v-.05a.52.52,0,0,0-.14-.43,8.46,8.46,0,0,0-1.29-.88,1.1,1.1,0,0,0-.25-.15,4.08,4.08,0,0,1-.49-.28c-.05,0-.08-.09-.14-.12s0,0-.06,0a1,1,0,0,1-.2-1.29.82.82,0,0,1,.66-.31,1,1,0,0,1,.63.23s0,0,0,.06l.15.11c.14.14.25.26.37.4a1.89,1.89,0,0,1,.2.2,6.37,6.37,0,0,0,1.14,1.05.43.43,0,0,0,.25.09c.06,0,.12,0,.17,0h.06l.28.2a11,11,0,0,1,5.65-3.19,13.3,13.3,0,0,1,1.54-.23l0-.37.06-.06a.57.57,0,0,0,.23-.37,7,7,0,0,0-.09-1.54v0a1.78,1.78,0,0,0-.05-.28,1.57,1.57,0,0,1-.09-.54v-.23a.93.93,0,0,1,.26-.66A.91.91,0,0,1,24,9.14a.92.92,0,0,1,.89.94v.26c0,.2-.06.37-.09.54a.92.92,0,0,0,0,.28v0a9.49,9.49,0,0,0-.09,1.54.59.59,0,0,0,.23.37l.06.06,0,.37a11.37,11.37,0,0,1,6,2.36A13.26,13.26,0,0,1,32.13,17l.34-.23h.06a.32.32,0,0,0,.17,0,.43.43,0,0,0,.25-.09,7,7,0,0,0,1.14-1,.92.92,0,0,0,.2-.19,4.61,4.61,0,0,1,.37-.4c.06,0,.09-.09.15-.12l0,0a1,1,0,0,1,.63-.23.82.82,0,0,1,.66.31,1,1,0,0,1-.2,1.28s0,0-.06.06a.79.79,0,0,1-.14.11,4.19,4.19,0,0,1-.49.29c-.08.06-.17.08-.25.14a8.46,8.46,0,0,0-1.29.89.64.64,0,0,0-.14.42v.06l-.28.26a11.65,11.65,0,0,1,1.59,3.73,11.16,11.16,0,0,1,.2,4l.37.11s0,0,0,.06a.55.55,0,0,0,.31.31,8,8,0,0,0,1.54.26h0a1.06,1.06,0,0,0,.29,0,3.61,3.61,0,0,1,.54,0s.11,0,.17,0,0,0,.06,0h0a1.09,1.09,0,0,1,.83.94A1,1,0,0,1,38.37,28.72Z"/><path d="M27.43 27.06A.76.76 0 0 0 27 28l1.79 4.3a8.91 8.91 0 0 0 2.74-2.76 5.89 5.89 0 0 0 .82-1.74L27.82 27A1 1 0 0 0 27.43 27.06zM31.61 20.05l-3.44 3.11a.56.56 0 0 0-.17.31.76.76 0 0 0 .54.91l4.36 1.26a9.31 9.31 0 0 0-1.29-5.59z"/></svg>
