<svg xmlns="http://www.w3.org/2000/svg"  viewBox="0 0 48 48" width="48px" height="48px"><path fill="#90a4ae" d="M25 12H30V14H25z"/><path fill="#90a4ae" d="M33 13L29 10 29 16zM25 34H30V36H25z"/><path fill="#90a4ae" d="M33 35L29 32 29 38zM25 13H27V35H25z"/><path fill="#90a4ae" d="M22 23H26V25H22z"/><path fill="#2196f3" d="M35 5H44V21H35z"/><path fill="#37474f" d="M37 7H42V9H37zM37 10H42V12H37z"/><path fill="#bbdefb" d="M39.5 16A1.5 1.5 0 1 0 39.5 19A1.5 1.5 0 1 0 39.5 16Z"/><path fill="#2196f3" d="M35 27H44V43H35z"/><path fill="#37474f" d="M37 29H42V31H37zM37 32H42V34H37z"/><path fill="#bbdefb" d="M39.5 38A1.5 1.5 0 1 0 39.5 41A1.5 1.5 0 1 0 39.5 38Z"/><path fill="#2196f3" d="M4 10H20V38H4z"/><path fill="#bbdefb" d="M11.981 32A2.012 2 0 1 0 11.981 36A2.012 2 0 1 0 11.981 32Z"/><path fill="#37474f" d="M6 12H18V16H6z"/><path fill="#76ff03" d="M15 13A1 1 0 1 0 15 15A1 1 0 1 0 15 13Z"/><path fill="#37474f" d="M6 18H18V22H6z"/><path fill="#76ff03" d="M15 19A1 1 0 1 0 15 21A1 1 0 1 0 15 19Z"/><path fill="#37474f" d="M6 24H18V28H6z"/><path fill="#76ff03" d="M15 25A1 1 0 1 0 15 27A1 1 0 1 0 15 25Z"/></svg>
