<svg xmlns="http://www.w3.org/2000/svg" viewBox="0 0 64 64"><g data-name="Layer 2"><path d="M56.69,5.89H7.31A4.32,4.32,0,0,0,3,10.2V46.1a4.32,4.32,0,0,0,4.31,4.31H26.19v5.7H23a1,1,0,1,0,0,2H41a1,1,0,0,0,0-2H37.81v-5.7H56.69A4.32,4.32,0,0,0,61,46.1V10.2A4.32,4.32,0,0,0,56.69,5.89Zm-49.37,2H56.69A2.32,2.32,0,0,1,59,10.2V38.3H5V10.2A2.32,2.32,0,0,1,7.31,7.89Zm28.5,48.22H28.19v-5.7h7.63Zm20.87-7.7H7.31A2.32,2.32,0,0,1,5,46.1V40.3H59v5.8A2.32,2.32,0,0,1,56.69,48.41Z"/><path d="M11.73,34.13a1,1,0,0,0,1.38-.31L21.3,20.93l5,7.76a1,1,0,0,0,1.55.16L36,20.65l4.25,6.11a1,1,0,0,0,1.61,0L52.64,13a1,1,0,1,0-1.57-1.23l-10,12.77-4.16-6a1,1,0,0,0-1.53-.13l-8,8.18-5.22-8a1,1,0,0,0-.84-.45h0a1,1,0,0,0-.84.46l-9,14.2A1,1,0,0,0,11.73,34.13Z"/></g></svg>
