<svg xmlns="http://www.w3.org/2000/svg" xmlns:xlink="http://www.w3.org/1999/xlink" data-name="Layer 1" viewBox="0 0 512 512"><defs><linearGradient id="a" x1="144.32" x2="366.91" y1="445.3" y2="445.3" gradientUnits="userSpaceOnUse"><stop offset="0" stop-color="#c8d6e8"/><stop offset="1" stop-color="#ebf2ff"/></linearGradient><linearGradient id="b" x2="511.23" y1="175.69" y2="175.69" gradientUnits="userSpaceOnUse"><stop offset="0" stop-color="#373e49"/><stop offset=".6" stop-color="#4c535e"/><stop offset="1" stop-color="#545b66"/></linearGradient><linearGradient id="c" x1="24.8" x2="486.44" y1="178.2" y2="178.2" gradientUnits="userSpaceOnUse"><stop offset="0" stop-color="#0092ff"/><stop offset=".32" stop-color="#00a2ff"/><stop offset=".96" stop-color="#0cf"/><stop offset="1" stop-color="#00cfff"/></linearGradient><linearGradient id="d" x2="511.23" y1="360.93" y2="360.93" xlink:href="#a"/><linearGradient id="e" x1="278.37" x2="278.37" y1="508.62" y2="413.53" gradientUnits="userSpaceOnUse"><stop offset=".2" stop-color="#c8d6e8"/><stop offset=".48" stop-color="#c6d4e5"/><stop offset=".65" stop-color="#c0cddd"/><stop offset=".8" stop-color="#b6c0cf"/><stop offset=".92" stop-color="#a7afba"/><stop offset="1" stop-color="#9ba1aa"/></linearGradient></defs><path fill="url(#a)" d="M366.91,508.19h0a174.3,174.3,0,0,1-47.26-119.34v-6.44H191.58v6.44a174.3,174.3,0,0,1-47.26,119.34H366.91Z"/><path fill="url(#b)" d="M511.23,84.67A41.63,41.63,0,0,0,469.61,43h-428A41.63,41.63,0,0,0,0,84.67V308.33H511.23Z"/><path fill="url(#c)" d="M486.44,287.39V93.1A24.1,24.1,0,0,0,462.34,69H48.89A24.1,24.1,0,0,0,24.8,93.1V287.39Z"/><path fill="url(#d)" d="M0,308.33V371.9a41.63,41.63,0,0,0,41.63,41.63h428a41.63,41.63,0,0,0,41.63-41.63V308.33Z"/><path fill="url(#e)" d="M189.83,413.53l95.09,95.09h82s-38.74-38.49-45.51-95.09Z"/><circle cx="255.62" cy="354.63" r="17.47" fill="#aeb4c1"/><path fill="#fff" d="M182.78,261.31h-.37a6.2,6.2,0,0,1-5.13-2.57l-30.44-52.47-23.92,36.28a6.49,6.49,0,0,1-5.41,2.4H70c-3.28,0-5.93-1.83-5.93-4.09s2.65-4.09,5.93-4.09h43.65l28.08-42.61c1-1.49,3.12-2.36,5.54-2.4s4.49,1.05,5.37,2.57l31,53.38,23.61-29.3a6.69,6.69,0,0,1,5.1-2.11,7,7,0,0,1,5.19,2l10,11.61,20.61-53.26c.58-1.9,3-3.25,5.81-3.25h.15c2.86.05,5.26,1.5,5.71,3.45l31.6,59.91h88c3.28,0,5.93,1.83,5.93,4.09s-2.65,4.09-5.93,4.09H286.37c-2.92,0-5.41-1.46-5.86-3.45l-27.36-46.42L236,241.85c-.5,1.64-2.42,2.92-4.83,3.19a7.2,7.2,0,0,1-6.07-1.94l-12.52-14.5L188,259.2A6.72,6.72,0,0,1,182.78,261.31Z"/><path fill="#fff" d="M182.85,184.2h-.37a6.2,6.2,0,0,1-5.13-2.57L146.9,129.15,123,165.43a6.49,6.49,0,0,1-5.41,2.4H70.11c-3.28,0-5.93-1.83-5.93-4.09s2.65-4.09,5.93-4.09h43.65L141.84,117c1-1.49,3.12-2.36,5.54-2.4s4.49,1.05,5.37,2.57l31,53.38,23.61-29.3a6.69,6.69,0,0,1,5.1-2.11,7,7,0,0,1,5.19,2l10,11.61,20.61-53.26c.58-1.9,3-3.25,5.81-3.25h.15c2.86.05,5.26,1.5,5.71,3.45l31.6,59.91h88c3.28,0,5.93,1.83,5.93,4.09s-2.65,4.09-5.93,4.09H286.44c-2.92,0-5.41-1.46-5.86-3.45L253.22,118l-17.1,46.78c-.5,1.64-2.42,2.92-4.83,3.19a7.2,7.2,0,0,1-6.07-1.94l-12.52-14.5L188,182.09A6.72,6.72,0,0,1,182.85,184.2Z"/><path fill="#d84200" d="M428.32,107.81c2.66-6,8.53-11.52,15.59-11.52,9.52,0,16.37,7.74,17.23,17a16,16,0,0,1-.56,6.41,28.13,28.13,0,0,1-9.08,14.41l-22.86,19.56a.5.5,0,0,1-.65,0l-22.86-19.56a28.12,28.12,0,0,1-9.08-14.41,16.2,16.2,0,0,1-.56-6.41c.87-9.22,7.71-17,17.23-17C419.79,96.28,425.67,101.82,428.32,107.81Z"/></svg>
