<svg xmlns="http://www.w3.org/2000/svg"  viewBox="0 0 16 16"><path style="line-height:normal;text-indent:0;text-align:start;text-decoration-line:none;text-decoration-style:solid;text-decoration-color:#000;text-transform:none;block-progression:tb;white-space:normal;isolation:auto;mix-blend-mode:normal;solid-color:#000;solid-opacity:1" d="M 8.5039062 1.0058594 C 6.5834413 1.0058594 4.6615898 1.7368687 3.1992188 3.1992188 C 0.27447657 6.1239188 0.27447657 10.881941 3.1992188 13.806641 C 6.1239608 16.731341 10.881899 16.731341 13.806641 13.806641 C 16.731383 10.881941 16.731383 6.1239188 13.806641 3.1992188 C 12.34427 1.7368687 10.424371 1.0058594 8.5039062 1.0058594 z M 8.5039062 2 C 10.166355 2 11.828313 2.63495 13.099609 3.90625 C 15.642202 6.44885 15.642202 10.557009 13.099609 13.099609 C 10.557016 15.642209 6.4488434 15.642209 3.90625 13.099609 C 1.3636567 10.557009 1.3636567 6.44885 3.90625 3.90625 C 5.1775467 2.63495 6.8414575 2 8.5039062 2 z M 11.464844 6.5019531 A 0.50005 0.50005 0 0 0 11.203125 6.6054688 L 7.5507812 9.3457031 L 5.8574219 7.6523438 A 0.50005 0.50005 0 1 0 5.1503906 8.359375 L 7.1503906 10.359375 A 0.50005 0.50005 0 0 0 7.8027344 10.40625 L 11.802734 7.40625 A 0.50005 0.50005 0 0 0 11.515625 6.5019531 A 0.50005 0.50005 0 0 0 11.464844 6.5019531 z " color="#000" enable-background="accumulate" font-family="sans-serif" font-weight="400" overflow="visible"/></svg>
