<svg xmlns="http://www.w3.org/2000/svg" viewBox="0 0 48 48"><defs><linearGradient id="a" x1="24" x2="24" y1="41" y2="7" gradientUnits="userSpaceOnUse"><stop offset="0" stop-color="#21acce"/><stop offset="1" stop-color="#a124fa"/></linearGradient></defs><path fill="url(#a)" d="M35,11H28.82A3,3,0,0,0,26,7H22a3,3,0,0,0-2.82,4H13a3,3,0,0,0,0,6V37a4,4,0,0,0,4,4H31a4,4,0,0,0,4-4V17A3,3,0,0,0,35,11ZM21,10a1,1,0,0,1,1-1h4a1,1,0,0,1,0,2H22A1,1,0,0,1,21,10ZM33,37a2,2,0,0,1-2,2H17a2,2,0,0,1-2-2V17H33Zm2-22H13a1,1,0,0,1,0-2H35A1,1,0,0,1,35,15ZM18,35.08V21a1,1,0,0,1,2,0v14a1,1,0,0,1-2,0Zm10,0V21a1,1,0,0,1,2,0v14a1,1,0,0,1-2,0Zm-5-3V24a1,1,0,0,1,2,0v8a1,1,0,0,1-2,0Z"/></svg>
