<svg xmlns="http://www.w3.org/2000/svg" data-name="Layer 1" viewBox="0 0 64 64"><rect width="18" height="30" x="44" y="18" fill="#7cb4f8" rx="2"/><polygon fill="#6d8299" points="30 40 30 21 4 21 4 40 2 45 32 45 30 40"/><path fill="#6d8299" d="M62 20v2H44V20a2.006 2.006 0 0 1 2-2H60A2.006 2.006 0 0 1 62 20zM62 44v2a2.006 2.006 0 0 1-2 2H46a2.006 2.006 0 0 1-2-2V44z"/><rect width="26" height="19" x="4" y="21" fill="#7cb4f8"/><polygon fill="#8da8cc" points="55 8 49 8 52 13 55 8"/><polygon fill="#8da8cc" points="11 55 17 55 14 50 11 55"/><rect width="8" height="6" x="13" y="30" fill="#d98d8e"/><circle cx="53" cy="37" r="2" fill="#e6e6e6"/><path d="M60 17H46a3 3 0 0 0-3 3V46a3 3 0 0 0 3 3H60a3 3 0 0 0 3-3V20A3 3 0 0 0 60 17zm1 29a1 1 0 0 1-1 1H46a1 1 0 0 1-1-1V45H61zm0-3H45V23H61zm0-22H45V20a1 1 0 0 1 1-1H60a1 1 0 0 1 1 1zM31 39.807V21a1 1 0 0 0-1-1H4a1 1 0 0 0-1 1V39.807L1.071 44.628A1 1 0 0 0 2 46H32a1 1 0 0 0 .929-1.372zM5 22H29V39H5zM3.477 44l1.2-3H29.323l1.2 3zM49 7a1 1 0 0 0-.857 1.515l3 5a1 1 0 0 0 1.714 0l3-5A1 1 0 0 0 55 7H53V5a4 4 0 0 0-4-4H17a4 4 0 0 0-4 4V17h2V5a2 2 0 0 1 2-2H49a2 2 0 0 1 2 2V7zm4.233 2L52 11.056 50.767 9zM51 59a2 2 0 0 1-2 2H17a2 2 0 0 1-2-2V56h2a1 1 0 0 0 .857-1.515l-3-5a1.039 1.039 0 0 0-1.714 0l-3 5A1 1 0 0 0 11 56h2v3a4 4 0 0 0 4 4H49a4 4 0 0 0 4-4V52H51zM12.767 54L14 51.944 15.233 54z"/><path d="M21 29h-.5V27.5a3.5 3.5 0 0 0-7 0V29H13a1 1 0 0 0-1 1v6a1 1 0 0 0 1 1h8a1 1 0 0 0 1-1V30A1 1 0 0 0 21 29zm-5.5-1.5a1.5 1.5 0 0 1 3 0V29h-3zM20 35H14V31h6zM50 37a3 3 0 1 0 4-2.816V26H52v1H50v2h2v5.184A3 3 0 0 0 50 37zm3-1a1 1 0 1 1-1 1A1 1 0 0 1 53 36z"/></svg>
