<svg xmlns="http://www.w3.org/2000/svg" width="56" height="56" viewBox="0 0 56 56"><g transform="translate(0 -996.362)"><circle cx="28" cy="1024.362" r="28" fill="#ffa40b" fill-rule="evenodd"/><path fill="#fff" d="M 1,3 C 0.447,3 0,3.4850313 0,4.0820312 L 0,27.916016 C 0,28.515016 0.447,29 1,29 l 30,0 c 0.553,0 1,-0.484984 1,-1.083984 L 32,4.0820312 C 32,3.4840312 31.553,3 31,3 L 1,3 Z m 22,1 c 0.553,0 1,0.448 1,1 0,0.552 -0.447,1 -1,1 -0.553,0 -1,-0.448 -1,-1 0,-0.552 0.447,-1 1,-1 z m 3,0 c 0.553,0 1,0.448 1,1 0,0.552 -0.447,1 -1,1 -0.553,0 -1,-0.448 -1,-1 0,-0.552 0.447,-1 1,-1 z m 3,0 c 0.553,0 1,0.448 1,1 0,0.552 -0.447,1 -1,1 C 28.447,6 28,5.552 28,5 28,4.448 28.447,4 29,4 Z M 1.9375,7 30.0625,7 c 0.518,0 0.939453,0.392 0.939453,0.875 l 0,19.25 C 31.001953,27.608 30.5805,28 30.0625,28 L 1.9375,28 C 1.4195,28 1,27.608 1,27.125 L 1,7.875 C 1,7.392 1.4195,7 1.9375,7 Z M 4,12 4,24 28,24 28,12 4,12 Z m 12.507812,1.990234 c 0.575625,0.005 1.14761,0.406451 1.59961,1.189454 l 2.222656,4.017578 C 21.384078,21.022266 21.239906,22 19.378906,22 l -0.167968,0 -5.419922,0 -0.08399,0 0,0.0039 c -1.722,0 -2.195781,-0.82364 -1.050781,-2.80664 l 2.234375,-4.017578 c 0.4625,-0.803002 1.041562,-1.194454 1.617187,-1.189454 z M 16,16 l 0,3 1,0 0,-3 -1,0 z m 0.5,4 C 16.224,20 16,20.224 16,20.5 16,20.776 16.224,21 16.5,21 16.775,21 17,20.776 17,20.5 17,20.224 16.775,20 16.5,20 Z" transform="translate(12 1008.362)"/></g></svg>
